<mxfile host="app.diagrams.net" modified="2023-10-10T18:10:35.078Z" agent="Mozilla/5.0 (Windows NT 10.0; Win64; x64) AppleWebKit/537.36 (KHTML, like Gecko) Chrome/117.0.0.0 Safari/537.36" etag="9SgjlrNw0lRGyLmbEHHL" version="22.0.4" type="device">
  <diagram name="Page-1" id="g7uiWczvub9fh4_jC5qJ">
    <mxGraphModel dx="2055" dy="655" grid="1" gridSize="10" guides="1" tooltips="1" connect="1" arrows="1" fold="1" page="1" pageScale="1" pageWidth="827" pageHeight="1169" math="0" shadow="0">
      <root>
        <mxCell id="0" />
        <mxCell id="1" parent="0" />
        <mxCell id="m3mulAgunKzmKDPuI4wC-3" value="getAllTitles()" style="html=1;verticalAlign=bottom;endArrow=block;curved=0;rounded=0;" parent="1" edge="1">
          <mxGeometry width="80" relative="1" as="geometry">
            <mxPoint x="-89" y="280" as="sourcePoint" />
            <mxPoint x="60" y="280" as="targetPoint" />
          </mxGeometry>
        </mxCell>
        <mxCell id="m3mulAgunKzmKDPuI4wC-4" value="Database" style="shape=umlLifeline;perimeter=lifelinePerimeter;whiteSpace=wrap;html=1;container=1;dropTarget=0;collapsible=0;recursiveResize=0;outlineConnect=0;portConstraint=eastwest;newEdgeStyle={&quot;curved&quot;:0,&quot;rounded&quot;:0};participant=umlEntity;size=60;" parent="1" vertex="1">
          <mxGeometry x="195" y="145" width="60" height="335" as="geometry" />
        </mxCell>
        <mxCell id="m3mulAgunKzmKDPuI4wC-5" value="" style="html=1;points=[[0,0,0,0,5],[0,1,0,0,-5],[1,0,0,0,5],[1,1,0,0,-5]];perimeter=orthogonalPerimeter;outlineConnect=0;targetShapes=umlLifeline;portConstraint=eastwest;newEdgeStyle={&quot;curved&quot;:0,&quot;rounded&quot;:0};" parent="m3mulAgunKzmKDPuI4wC-4" vertex="1">
          <mxGeometry x="25" y="155" width="10" height="80" as="geometry" />
        </mxCell>
        <mxCell id="m3mulAgunKzmKDPuI4wC-7" value="select title" style="html=1;verticalAlign=bottom;endArrow=block;curved=0;rounded=0;" parent="1" target="m3mulAgunKzmKDPuI4wC-5" edge="1">
          <mxGeometry width="80" relative="1" as="geometry">
            <mxPoint x="65" y="310" as="sourcePoint" />
            <mxPoint x="235" y="310" as="targetPoint" />
          </mxGeometry>
        </mxCell>
        <mxCell id="m3mulAgunKzmKDPuI4wC-8" value="return all title" style="html=1;verticalAlign=bottom;endArrow=open;dashed=1;endSize=8;curved=0;rounded=0;" parent="1" edge="1">
          <mxGeometry relative="1" as="geometry">
            <mxPoint x="220" y="369.9999999999999" as="sourcePoint" />
            <mxPoint x="70" y="369.9999999999999" as="targetPoint" />
          </mxGeometry>
        </mxCell>
        <mxCell id="m3mulAgunKzmKDPuI4wC-10" value="return all title" style="html=1;verticalAlign=bottom;endArrow=open;dashed=1;endSize=8;curved=0;rounded=0;" parent="1" edge="1">
          <mxGeometry relative="1" as="geometry">
            <mxPoint x="65" y="380" as="sourcePoint" />
            <mxPoint x="-90" y="380" as="targetPoint" />
          </mxGeometry>
        </mxCell>
        <mxCell id="m3mulAgunKzmKDPuI4wC-16" value="Model" style="shape=umlLifeline;perimeter=lifelinePerimeter;whiteSpace=wrap;html=1;container=1;dropTarget=0;collapsible=0;recursiveResize=0;outlineConnect=0;portConstraint=eastwest;newEdgeStyle={&quot;curved&quot;:0,&quot;rounded&quot;:0};" parent="1" vertex="1">
          <mxGeometry x="15" y="160" width="100" height="320" as="geometry" />
        </mxCell>
        <mxCell id="m3mulAgunKzmKDPuI4wC-17" value="" style="html=1;points=[[0,0,0,0,5],[0,1,0,0,-5],[1,0,0,0,5],[1,1,0,0,-5]];perimeter=orthogonalPerimeter;outlineConnect=0;targetShapes=umlLifeline;portConstraint=eastwest;newEdgeStyle={&quot;curved&quot;:0,&quot;rounded&quot;:0};" parent="m3mulAgunKzmKDPuI4wC-16" vertex="1">
          <mxGeometry x="45" y="110" width="10" height="120" as="geometry" />
        </mxCell>
        <mxCell id="IV_ps0aK9WwAzYlMQQ2p-1" value="Router" style="shape=umlLifeline;perimeter=lifelinePerimeter;whiteSpace=wrap;html=1;container=1;dropTarget=0;collapsible=0;recursiveResize=0;outlineConnect=0;portConstraint=eastwest;newEdgeStyle={&quot;curved&quot;:0,&quot;rounded&quot;:0};" vertex="1" parent="1">
          <mxGeometry x="-310" y="160" width="100" height="320" as="geometry" />
        </mxCell>
        <mxCell id="IV_ps0aK9WwAzYlMQQ2p-2" value="" style="html=1;points=[[0,0,0,0,5],[0,1,0,0,-5],[1,0,0,0,5],[1,1,0,0,-5]];perimeter=orthogonalPerimeter;outlineConnect=0;targetShapes=umlLifeline;portConstraint=eastwest;newEdgeStyle={&quot;curved&quot;:0,&quot;rounded&quot;:0};" vertex="1" parent="IV_ps0aK9WwAzYlMQQ2p-1">
          <mxGeometry x="45" y="80" width="10" height="60" as="geometry" />
        </mxCell>
        <mxCell id="IV_ps0aK9WwAzYlMQQ2p-3" value="index" style="shape=umlLifeline;perimeter=lifelinePerimeter;whiteSpace=wrap;html=1;container=1;dropTarget=0;collapsible=0;recursiveResize=0;outlineConnect=0;portConstraint=eastwest;newEdgeStyle={&quot;curved&quot;:0,&quot;rounded&quot;:0};" vertex="1" parent="1">
          <mxGeometry x="-480" y="160" width="100" height="320" as="geometry" />
        </mxCell>
        <mxCell id="IV_ps0aK9WwAzYlMQQ2p-4" value="" style="html=1;points=[[0,0,0,0,5],[0,1,0,0,-5],[1,0,0,0,5],[1,1,0,0,-5]];perimeter=orthogonalPerimeter;outlineConnect=0;targetShapes=umlLifeline;portConstraint=eastwest;newEdgeStyle={&quot;curved&quot;:0,&quot;rounded&quot;:0};" vertex="1" parent="IV_ps0aK9WwAzYlMQQ2p-3">
          <mxGeometry x="45" y="80" width="10" height="50" as="geometry" />
        </mxCell>
        <mxCell id="IV_ps0aK9WwAzYlMQQ2p-5" value="dispatch($uri)" style="html=1;verticalAlign=bottom;endArrow=block;curved=0;rounded=0;" edge="1" parent="1">
          <mxGeometry x="0.0065" width="80" relative="1" as="geometry">
            <mxPoint x="-421" y="260" as="sourcePoint" />
            <mxPoint x="-266" y="260" as="targetPoint" />
            <mxPoint as="offset" />
          </mxGeometry>
        </mxCell>
        <mxCell id="IV_ps0aK9WwAzYlMQQ2p-6" value="Exercise&lt;br&gt;controller" style="shape=umlLifeline;perimeter=lifelinePerimeter;whiteSpace=wrap;html=1;container=1;dropTarget=0;collapsible=0;recursiveResize=0;outlineConnect=0;portConstraint=eastwest;newEdgeStyle={&quot;curved&quot;:0,&quot;rounded&quot;:0};" vertex="1" parent="1">
          <mxGeometry x="-144" y="160" width="100" height="320" as="geometry" />
        </mxCell>
        <mxCell id="IV_ps0aK9WwAzYlMQQ2p-7" value="" style="html=1;points=[[0,0,0,0,5],[0,1,0,0,-5],[1,0,0,0,5],[1,1,0,0,-5]];perimeter=orthogonalPerimeter;outlineConnect=0;targetShapes=umlLifeline;portConstraint=eastwest;newEdgeStyle={&quot;curved&quot;:0,&quot;rounded&quot;:0};" vertex="1" parent="IV_ps0aK9WwAzYlMQQ2p-6">
          <mxGeometry x="45" y="90" width="10" height="170" as="geometry" />
        </mxCell>
        <mxCell id="IV_ps0aK9WwAzYlMQQ2p-10" value="answering()" style="html=1;verticalAlign=bottom;endArrow=block;curved=0;rounded=0;" edge="1" parent="1">
          <mxGeometry x="0.0065" width="80" relative="1" as="geometry">
            <mxPoint x="-254" y="270" as="sourcePoint" />
            <mxPoint x="-99" y="270" as="targetPoint" />
            <mxPoint as="offset" />
          </mxGeometry>
        </mxCell>
        <mxCell id="IV_ps0aK9WwAzYlMQQ2p-11" value="renderer" style="shape=umlLifeline;perimeter=lifelinePerimeter;whiteSpace=wrap;html=1;container=1;dropTarget=0;collapsible=0;recursiveResize=0;outlineConnect=0;portConstraint=eastwest;newEdgeStyle={&quot;curved&quot;:0,&quot;rounded&quot;:0};" vertex="1" parent="1">
          <mxGeometry x="-650" y="160" width="100" height="320" as="geometry" />
        </mxCell>
        <mxCell id="IV_ps0aK9WwAzYlMQQ2p-12" value="" style="html=1;points=[[0,0,0,0,5],[0,1,0,0,-5],[1,0,0,0,5],[1,1,0,0,-5]];perimeter=orthogonalPerimeter;outlineConnect=0;targetShapes=umlLifeline;portConstraint=eastwest;newEdgeStyle={&quot;curved&quot;:0,&quot;rounded&quot;:0};" vertex="1" parent="IV_ps0aK9WwAzYlMQQ2p-11">
          <mxGeometry x="45" y="190" width="10" height="70" as="geometry" />
        </mxCell>
        <mxCell id="IV_ps0aK9WwAzYlMQQ2p-13" value="render(viewPath,allTitle)" style="html=1;verticalAlign=bottom;endArrow=open;dashed=1;endSize=8;curved=0;rounded=0;" edge="1" parent="1">
          <mxGeometry relative="1" as="geometry">
            <mxPoint x="-99" y="393" as="sourcePoint" />
            <mxPoint x="-592" y="393" as="targetPoint" />
          </mxGeometry>
        </mxCell>
        <mxCell id="IV_ps0aK9WwAzYlMQQ2p-14" value="view" style="shape=umlLifeline;perimeter=lifelinePerimeter;whiteSpace=wrap;html=1;container=1;dropTarget=0;collapsible=0;recursiveResize=0;outlineConnect=0;portConstraint=eastwest;newEdgeStyle={&quot;curved&quot;:0,&quot;rounded&quot;:0};" vertex="1" parent="1">
          <mxGeometry x="-820" y="160" width="100" height="320" as="geometry" />
        </mxCell>
        <mxCell id="IV_ps0aK9WwAzYlMQQ2p-15" value="" style="html=1;points=[[0,0,0,0,5],[0,1,0,0,-5],[1,0,0,0,5],[1,1,0,0,-5]];perimeter=orthogonalPerimeter;outlineConnect=0;targetShapes=umlLifeline;portConstraint=eastwest;newEdgeStyle={&quot;curved&quot;:0,&quot;rounded&quot;:0};" vertex="1" parent="IV_ps0aK9WwAzYlMQQ2p-14">
          <mxGeometry x="45" y="80" width="10" height="185" as="geometry" />
        </mxCell>
        <mxCell id="IV_ps0aK9WwAzYlMQQ2p-16" value="include view inside layout" style="html=1;verticalAlign=bottom;endArrow=open;dashed=1;endSize=8;curved=0;rounded=0;" edge="1" parent="1">
          <mxGeometry relative="1" as="geometry">
            <mxPoint x="-609" y="407.5" as="sourcePoint" />
            <mxPoint x="-764" y="407.5" as="targetPoint" />
          </mxGeometry>
        </mxCell>
        <mxCell id="IV_ps0aK9WwAzYlMQQ2p-17" style="edgeStyle=orthogonalEdgeStyle;rounded=0;orthogonalLoop=1;jettySize=auto;html=1;curved=0;" edge="1" parent="1">
          <mxGeometry relative="1" as="geometry">
            <mxPoint x="-765" y="250" as="sourcePoint" />
            <mxPoint x="-435" y="250" as="targetPoint" />
          </mxGeometry>
        </mxCell>
        <mxCell id="IV_ps0aK9WwAzYlMQQ2p-18" value="/exercises/answering" style="edgeLabel;html=1;align=center;verticalAlign=middle;resizable=0;points=[];" vertex="1" connectable="0" parent="IV_ps0aK9WwAzYlMQQ2p-17">
          <mxGeometry x="-0.628" y="-1" relative="1" as="geometry">
            <mxPoint x="34" y="-11" as="offset" />
          </mxGeometry>
        </mxCell>
      </root>
    </mxGraphModel>
  </diagram>
</mxfile>
